<?xml version="1.0" encoding="UTF-8"?>
<svg id="_Слой_1" data-name="Слой 1" xmlns="http://www.w3.org/2000/svg" viewBox="0 0 2000 1860.49">
  <defs>
    <style>
      .cls-1 {
        stroke-width: 0px;
      }
    </style>
  </defs>
  <g>
    <g>
      <path class="cls-1" d="m47.25,1840.75c-9.11,0-17.24-1.97-24.39-5.91-7.15-3.94-12.74-9.34-16.79-16.2C2.02,1811.78,0,1803.9,0,1795.02s2.02-16.76,6.08-23.63c4.05-6.86,9.64-12.24,16.79-16.12,7.14-3.88,15.27-5.82,24.39-5.82,8.1,0,15.33,1.61,21.69,4.81,6.35,3.21,11.28,7.96,14.76,14.27l-12.32,7.93c-2.93-4.39-6.5-7.62-10.72-9.7-4.22-2.08-8.75-3.12-13.59-3.12-5.85,0-11.08,1.29-15.7,3.88-4.62,2.59-8.27,6.22-10.97,10.88-2.7,4.67-4.05,10.21-4.05,16.63s1.35,11.98,4.05,16.71c2.7,4.73,6.35,8.38,10.97,10.97,4.61,2.59,9.84,3.88,15.7,3.88,4.84,0,9.37-1.04,13.59-3.12,4.22-2.08,7.79-5.32,10.72-9.7l12.32,7.76c-3.49,6.19-8.41,10.94-14.76,14.26-6.36,3.32-13.59,4.98-21.69,4.98Z"/>
      <path class="cls-1" d="m175.34,1840.75c-9,0-16.99-1.97-23.96-5.91-6.98-3.94-12.49-9.37-16.54-16.28-4.05-6.92-6.08-14.77-6.08-23.54s2.02-16.76,6.08-23.63c4.05-6.86,9.56-12.24,16.54-16.12,6.97-3.88,14.96-5.82,23.96-5.82s16.85,1.95,23.88,5.82c7.03,3.88,12.55,9.22,16.54,16.03,3.99,6.81,5.99,14.71,5.99,23.72s-2,16.76-5.99,23.63c-3.99,6.86-9.51,12.26-16.54,16.2-7.03,3.94-14.99,5.91-23.88,5.91Zm0-14.18c5.74,0,10.89-1.29,15.44-3.88,4.56-2.59,8.13-6.27,10.72-11.05,2.59-4.78,3.88-10.32,3.88-16.62s-1.29-11.95-3.88-16.63c-2.59-4.66-6.16-8.29-10.72-10.88-4.56-2.59-9.7-3.88-15.44-3.88s-10.86,1.29-15.36,3.88c-4.5,2.59-8.1,6.22-10.8,10.88-2.7,4.67-4.05,10.21-4.05,16.63s1.35,11.84,4.05,16.62c2.7,4.78,6.3,8.46,10.8,11.05,4.5,2.59,9.62,3.88,15.36,3.88Z"/>
      <path class="cls-1" d="m318.79,1840.75c-9.56,0-17.97-1.97-25.23-5.91-7.26-3.94-12.88-9.34-16.88-16.2-3.99-6.86-5.99-14.74-5.99-23.63s1.94-16.76,5.82-23.63c3.88-6.86,9.22-12.24,16.03-16.12,6.81-3.88,14.48-5.82,23.04-5.82s16.31,1.92,22.95,5.74c6.64,3.83,11.84,9.2,15.61,16.12,3.77,6.92,5.65,14.99,5.65,24.22,0,.68-.03,1.47-.08,2.36-.06.9-.14,1.75-.25,2.53h-76.11v-11.64h67.67l-6.58,4.05c.11-5.73-1.07-10.85-3.54-15.35-2.48-4.5-5.88-8.02-10.21-10.55-4.33-2.53-9.37-3.79-15.1-3.79s-10.63,1.26-15.02,3.79c-4.39,2.53-7.82,6.08-10.29,10.63-2.48,4.56-3.71,9.76-3.71,15.61v2.7c0,5.97,1.38,11.28,4.13,15.95,2.76,4.67,6.61,8.29,11.56,10.88,4.95,2.59,10.63,3.88,17.05,3.88,5.29,0,10.1-.9,14.43-2.7,4.33-1.8,8.13-4.5,11.39-8.1l8.95,10.47c-4.05,4.73-9.09,8.32-15.11,10.8-6.02,2.48-12.74,3.72-20.17,3.72Z"/>
      <path class="cls-1" d="m402.84,1860.49v-34.93h105.31v34.93h-15.19v-20.76h-74.76v20.76h-15.36Zm75.44-28.35v-67.67h-38.82l-.84,17.21c-.23,5.63-.59,11.05-1.1,16.28-.5,5.23-1.29,10.04-2.36,14.43-1.07,4.39-2.62,7.99-4.64,10.8-2.02,2.81-4.73,4.56-8.1,5.23l-16.03-2.87c3.48.11,6.3-1.04,8.44-3.46,2.14-2.42,3.8-5.76,4.98-10.04,1.18-4.27,2.05-9.13,2.62-14.59.56-5.46,1.01-11.11,1.35-16.96l1.35-30.21h69.36v81.85h-16.2Z"/>
      <path class="cls-1" d="m562.99,1839.74v-89.45h16.2v65.14l54.85-65.14h14.68v89.45h-16.2v-65.14l-54.68,65.14h-14.85Z"/>
      <path class="cls-1" d="m713.86,1839.74v-89.45h16.2v37.97h50.96v-37.97h16.2v89.45h-16.2v-37.46h-50.96v37.46h-16.2Z"/>
      <path class="cls-1" d="m854.95,1839.74l24.3-34.26h16.71l-23.63,34.26h-17.38Zm64.81,0v-31.39l2.53,3.04h-28.52c-11.93,0-21.24-2.53-27.93-7.6-6.7-5.06-10.04-12.43-10.04-22.11,0-10.35,3.57-18.17,10.72-23.46,7.14-5.29,16.68-7.93,28.6-7.93h39.15v89.45h-14.51Zm0-36.45v-43.37l2.53,4.56h-26.66c-7.43,0-13.17,1.38-17.21,4.14-4.05,2.76-6.08,7.29-6.08,13.58,0,11.7,7.54,17.55,22.61,17.55h27.34l-2.53,3.54Z"/>
      <path class="cls-1" d="m991.98,1839.74l24.3-34.26h16.71l-23.63,34.26h-17.38Zm64.81,0v-31.39l2.53,3.04h-28.52c-11.93,0-21.24-2.53-27.93-7.6-6.7-5.06-10.04-12.43-10.04-22.11,0-10.35,3.57-18.17,10.72-23.46,7.14-5.29,16.68-7.93,28.6-7.93h39.15v89.45h-14.51Zm0-36.45v-43.37l2.53,4.56h-26.66c-7.43,0-13.17,1.38-17.21,4.14-4.05,2.76-6.08,7.29-6.08,13.58,0,11.7,7.54,17.55,22.61,17.55h27.34l-2.53,3.54Z"/>
      <path class="cls-1" d="m1257.11,1841.08c-7.43,0-13.98-1.18-19.66-3.54-5.68-2.36-10.55-5.88-14.6-10.55-4.05-4.66-7.12-10.57-9.2-17.72-2.08-7.14-3.12-15.56-3.12-25.23,0-7.65.68-14.51,2.03-20.59,1.35-6.08,3.29-11.48,5.82-16.21,2.53-4.73,5.68-8.83,9.45-12.32,3.77-3.48,8.04-6.38,12.82-8.69,4.78-2.31,10.04-4.08,15.78-5.32l40.84-9.11,2.36,15.02-37.63,8.1c-2.25.45-4.95,1.13-8.1,2.03-3.15.9-6.36,2.28-9.62,4.13-3.26,1.86-6.3,4.42-9.11,7.68-2.81,3.26-5.06,7.51-6.75,12.74-1.69,5.23-2.53,11.68-2.53,19.32,0,2.14.05,3.77.17,4.89.11,1.13.25,2.26.42,3.38.17,1.13.31,2.81.42,5.06l-6.75-6.92c1.8-6.19,4.67-11.59,8.61-16.21,3.94-4.61,8.69-8.18,14.26-10.71,5.57-2.53,11.67-3.79,18.31-3.79,8.33,0,15.72,1.8,22.19,5.4,6.47,3.6,11.56,8.55,15.27,14.85,3.71,6.3,5.57,13.5,5.57,21.6s-1.94,15.56-5.82,22.02c-3.88,6.47-9.37,11.54-16.45,15.19-7.09,3.65-15.42,5.48-24.98,5.48Zm1.52-13.5c5.74,0,10.8-1.26,15.19-3.79,4.39-2.53,7.82-5.97,10.29-10.3,2.48-4.33,3.71-9.2,3.71-14.6s-1.24-10.18-3.71-14.34-5.91-7.45-10.29-9.87c-4.39-2.42-9.57-3.63-15.53-3.63-5.63,0-10.69,1.16-15.19,3.46-4.5,2.31-7.99,5.51-10.46,9.62-2.48,4.11-3.71,8.86-3.71,14.26s1.27,10.32,3.8,14.77c2.53,4.44,6.02,7.96,10.46,10.55,4.44,2.59,9.59,3.88,15.44,3.88Z"/>
      <path class="cls-1" d="m1361.24,1839.74v-89.45h16.2v65.14l54.85-65.14h14.68v89.45h-16.2v-65.14l-54.68,65.14h-14.85Z"/>
      <path class="cls-1" d="m1516.92,1838.3c-6.47-1.75-12.24-4.25-17.3-7.51l4.89-12.32c4.27,2.7,9.17,4.81,14.68,6.33,5.51,1.52,11.08,2.28,16.71,2.28,5.17,0,9.64-.61,13.42-1.86,3.77-1.23,6.66-2.95,8.69-5.15,2.02-2.19,3.04-4.75,3.04-7.68,0-4.16-1.86-7.36-5.57-9.62-3.71-2.25-8.89-3.37-15.53-3.37h-16.2v-11.64h15.19c3.94,0,7.37-.45,10.3-1.35,2.92-.9,5.2-2.28,6.83-4.13,1.63-1.86,2.45-4.02,2.45-6.5,0-2.7-.96-5.01-2.87-6.92-1.91-1.91-4.59-3.37-8.02-4.39-3.43-1.01-7.45-1.52-12.07-1.52-4.5.11-9.09.73-13.75,1.86-4.67,1.13-9.42,2.87-14.26,5.23l-4.39-12.66c5.4-2.59,10.72-4.58,15.95-5.99,5.23-1.41,10.43-2.17,15.61-2.28,7.76-.23,14.68.65,20.76,2.62,6.08,1.97,10.89,4.81,14.43,8.52,3.54,3.71,5.31,8.1,5.31,13.17,0,4.27-1.35,8.07-4.05,11.39-2.7,3.32-6.3,5.93-10.8,7.85-4.5,1.91-9.68,2.86-15.53,2.86l.67-3.88c10.01,0,17.89,1.97,23.63,5.91,5.74,3.94,8.61,9.28,8.61,16.03,0,5.4-1.8,10.16-5.4,14.26-3.6,4.11-8.47,7.31-14.6,9.62-6.13,2.31-13.14,3.46-21.01,3.46-6.75,0-13.36-.87-19.83-2.62Z"/>
      <path class="cls-1" d="m1636.15,1839.74v-89.45h16.2v37.97h50.96v-37.97h16.2v89.45h-16.2v-37.46h-50.96v37.46h-16.2Z"/>
      <path class="cls-1" d="m1824.66,1840.75c-9.56,0-17.97-1.97-25.23-5.91-7.26-3.94-12.88-9.34-16.88-16.2-3.99-6.86-5.99-14.74-5.99-23.63s1.94-16.76,5.82-23.63c3.88-6.86,9.22-12.24,16.03-16.12,6.81-3.88,14.48-5.82,23.04-5.82s16.31,1.92,22.95,5.74c6.64,3.83,11.84,9.2,15.61,16.12,3.77,6.92,5.65,14.99,5.65,24.22,0,.68-.03,1.47-.08,2.36-.06.9-.14,1.75-.25,2.53h-76.11v-11.64h67.67l-6.58,4.05c.11-5.73-1.07-10.85-3.54-15.35-2.48-4.5-5.88-8.02-10.21-10.55-4.33-2.53-9.37-3.79-15.1-3.79s-10.63,1.26-15.02,3.79c-4.39,2.53-7.82,6.08-10.29,10.63-2.48,4.56-3.71,9.76-3.71,15.61v2.7c0,5.97,1.38,11.28,4.13,15.95,2.76,4.67,6.61,8.29,11.56,10.88,4.95,2.59,10.63,3.88,17.05,3.88,5.29,0,10.1-.9,14.43-2.7,4.33-1.8,8.13-4.5,11.39-8.1l8.95,10.47c-4.05,4.73-9.09,8.32-15.11,10.8-6.02,2.48-12.74,3.72-20.17,3.72Z"/>
      <path class="cls-1" d="m1963.55,1840.75c-9.11,0-17.24-1.97-24.39-5.91-7.15-3.94-12.74-9.34-16.79-16.2-4.05-6.86-6.08-14.74-6.08-23.63s2.02-16.76,6.08-23.63c4.05-6.86,9.64-12.24,16.79-16.12,7.14-3.88,15.27-5.82,24.39-5.82,8.1,0,15.33,1.61,21.69,4.81,6.35,3.21,11.28,7.96,14.76,14.27l-12.32,7.93c-2.93-4.39-6.5-7.62-10.72-9.7-4.22-2.08-8.75-3.12-13.59-3.12-5.85,0-11.08,1.29-15.7,3.88-4.62,2.59-8.27,6.22-10.97,10.88-2.7,4.67-4.05,10.21-4.05,16.63s1.35,11.98,4.05,16.71c2.7,4.73,6.35,8.38,10.97,10.97,4.61,2.59,9.84,3.88,15.7,3.88,4.84,0,9.37-1.04,13.59-3.12,4.22-2.08,7.79-5.32,10.72-9.7l12.32,7.76c-3.49,6.19-8.41,10.94-14.76,14.26-6.36,3.32-13.59,4.98-21.69,4.98Z"/>
    </g>
    <g>
      <path class="cls-1" d="m295.7,1274.77c-28.23-15.99-60.69-24-97.39-24-31.05,0-59.4,7.06-85.04,21.17-17.65,9.71-32.78,22.84-45.52,39.24v-206.5H0v523.65h64.93v-59.14c12.85,17.53,28.46,31.52,46.93,41.85,25.64,14.36,54.45,21.53,86.45,21.53,36.7,0,69.16-8,97.39-23.99,28.23-15.99,50.57-38.34,67.04-67.05,16.46-28.69,24.7-62.1,24.7-100.21s-8.24-71.38-24.7-99.86c-16.47-28.46-38.81-50.69-67.04-66.69Zm6.7,236.06c-11.06,20-26.11,35.41-45.17,46.23-19.05,10.83-40.58,16.23-64.57,16.23s-44.81-5.4-63.87-16.23c-19.05-10.82-34.12-26.22-45.16-46.23-11.06-19.99-16.59-43.16-16.59-69.51s5.53-49.98,16.59-69.51c11.05-19.52,26.11-34.69,45.16-45.52,19.05-10.82,40.34-16.23,63.87-16.23s45.52,5.41,64.57,16.23c19.05,10.83,34.11,26,45.17,45.52,11.05,19.53,16.59,42.69,16.59,69.51s-5.54,49.52-16.59,69.51Z"/>
      <rect class="cls-1" x="488.33" y="1254.28" width="67.79" height="374.05"/>
      <path class="cls-1" d="m522.22,1104.68c-13.17,0-24.13,4.26-32.81,12.74-8.69,8.47-13.06,19.05-13.06,31.74s4.37,22.62,13.06,31.04c8.69,8.47,19.64,12.74,32.81,12.74s24.72-4.37,33.2-13.06c8.47-8.69,12.68-19.43,12.68-32.11s-4.37-22.45-13.06-30.71c-8.69-8.2-19.64-12.36-32.82-12.36Z"/>
      <polygon class="cls-1" points="964.01 1298.76 964.01 1254.3 660.55 1254.3 660.55 1310.05 877.49 1310.05 656.31 1584.58 656.31 1628.34 969.65 1628.34 969.65 1572.58 742.87 1572.58 964.01 1298.76"/>
      <polygon class="cls-1" points="1338.74 1298.76 1338.74 1254.3 1035.28 1254.3 1035.28 1310.05 1252.23 1310.05 1031.05 1584.58 1031.05 1628.34 1344.39 1628.34 1344.39 1572.58 1117.6 1572.58 1338.74 1298.76"/>
      <rect class="cls-1" x="1441.79" y="1254.28" width="67.74" height="374.05"/>
      <path class="cls-1" d="m1475.63,1104.68c-13.17,0-24.07,4.26-32.82,12.74-8.69,8.47-13.06,19.05-13.06,31.74s4.37,22.62,13.06,31.04c8.74,8.47,19.65,12.74,32.82,12.74s24.72-4.37,33.2-13.06c8.47-8.69,12.68-19.43,12.68-32.11s-4.32-22.45-13.06-30.71c-8.69-8.2-19.65-12.36-32.82-12.36Z"/>
      <path class="cls-1" d="m1974.95,1342.16c-16.71-28.46-39.76-50.81-69.16-67.05-29.41-16.23-62.7-24.35-99.86-24.35s-71.05,8.12-100.21,24.35c-29.18,16.23-52.22,38.7-69.16,67.4-16.94,28.7-25.41,61.64-25.41,98.8s8.47,69.51,25.41,98.45c16.94,28.93,39.98,51.64,69.16,68.1,29.17,16.47,62.57,24.7,100.21,24.7s70.45-8.23,99.86-24.7c29.4-16.46,52.46-39.05,69.16-67.75,16.69-28.7,25.05-61.63,25.05-98.8s-8.36-70.68-25.05-99.15Zm-59.63,168.67c-10.83,20-25.76,35.41-44.81,46.23-19.05,10.83-40.58,16.23-64.57,16.23s-45.41-5.4-64.22-16.23c-18.82-10.82-33.88-26.22-45.17-46.23-11.29-19.99-16.94-43.16-16.94-69.51s5.65-49.98,16.94-69.51c11.29-19.52,26.34-34.69,45.17-45.52,18.81-10.82,40.23-16.23,64.22-16.23s45.52,5.41,64.57,16.23c19.05,10.83,33.98,26,44.81,45.52,10.82,19.53,16.23,42.69,16.23,69.51s-5.41,49.52-16.23,69.51Z"/>
    </g>
  </g>
  <g>
    <path class="cls-1" d="m1608.66,609.89c-72.32,133.56-211.75,216.51-363.91,216.51-11.42,0-22.93-.47-34.39-1.44l99.35-183.47c61-17.34,113.71-58.58,144.42-115.29,30.2-55.73,36.81-119.95,18.73-180.9-18.13-60.95-58.81-111.14-114.54-141.29-105.78-57.32-237.8-26.47-307.19,71.67-5.41,7.6-10.44,15.75-15.01,24.14l-196.89,363.53-154.53-83.7,100.61-185.7,96.56-178.34c1.35-2.47,2.75-4.99,4.15-7.46,3.77-6.57,7.64-12.95,11.6-19.06C1013.8,8.42,1252.95-52.91,1442.01,49.47c200.43,108.58,275.18,359.99,166.64,560.42Z"/>
    <path class="cls-1" d="m1315.4,392.13l-98.19,181.23-100.28,185.14c-4.61,8.39-9.41,16.5-14.4,24.14-76.15,118.41-206.53,189.11-348.81,189.11-68.22,0-135.84-17.1-195.63-49.49-96.93-52.47-167.67-139.76-199.17-245.73-31.5-105.97-19.95-217.72,32.57-314.65,78.43-144.84,235.8-228.67,398.25-215.06l-99.4,183.42c-60.95,17.38-113.66,58.62-144.37,115.34-30.15,55.69-36.81,119.95-18.69,180.9,18.13,60.91,58.76,111.1,114.5,141.29,105.78,57.27,237.85,26.47,307.19-71.67,5.41-7.6,10.44-15.75,15.01-24.14l196.89-363.53,154.53,83.7Z"/>
  </g>
</svg>