<?xml version="1.0" encoding="UTF-8"?>
<svg id="_Слой_1" data-name="Слой 1" xmlns="http://www.w3.org/2000/svg" viewBox="0 0 2000 475.04">
  <defs>
    <style>
      .cls-1 {
        fill: #fff;
        stroke-width: 0px;
      }
    </style>
  </defs>
  <g>
    <path class="cls-1" d="m619.44,298.15c-35.36,65.29-103.52,105.84-177.9,105.84-5.58,0-11.21-.23-16.81-.71l48.57-89.69c29.82-8.47,55.59-28.64,70.6-56.36,14.76-27.25,18-58.64,9.16-88.44-8.86-29.8-28.75-54.33-56-69.07-51.71-28.02-116.25-12.94-150.17,35.04-2.64,3.71-5.1,7.7-7.34,11.8l-96.25,177.71-75.54-40.91,49.18-90.78,47.2-87.18c.66-1.21,1.34-2.44,2.03-3.65,1.85-3.21,3.74-6.33,5.67-9.32C328.64,4.11,445.55-25.86,537.97,24.18c97.98,53.08,134.52,175.98,81.46,273.96Z"/>
    <path class="cls-1" d="m476.08,191.69l-48,88.59-49.02,90.51c-2.26,4.1-4.6,8.06-7.04,11.8-37.22,57.89-100.96,92.44-170.51,92.44-33.35,0-66.41-8.36-95.63-24.19-47.38-25.65-81.97-68.32-97.37-120.12-15.4-51.8-9.75-106.43,15.92-153.82,38.34-70.8,115.27-111.79,194.69-105.13l-48.59,89.67c-29.8,8.5-55.56,28.66-70.58,56.38-14.74,27.22-18,58.64-9.14,88.44,8.86,29.77,28.73,54.31,55.97,69.07,51.71,28,116.27,12.94,150.17-35.04,2.64-3.71,5.1-7.7,7.34-11.8l96.25-177.71,75.54,40.91Z"/>
  </g>
  <g>
    <g>
      <path class="cls-1" d="m772.66,462.63c-5.73,0-10.84-1.24-15.33-3.71-4.49-2.47-8.01-5.87-10.55-10.18-2.55-4.31-3.82-9.26-3.82-14.85s1.27-10.54,3.82-14.85c2.54-4.31,6.06-7.69,10.55-10.13,4.49-2.44,9.6-3.66,15.33-3.66,5.09,0,9.63,1.01,13.63,3.02,3.99,2.02,7.09,5,9.28,8.97l-7.74,4.98c-1.84-2.76-4.08-4.79-6.74-6.1-2.65-1.31-5.5-1.96-8.54-1.96-3.68,0-6.97.81-9.86,2.44-2.9,1.63-5.2,3.91-6.89,6.84-1.7,2.94-2.55,6.42-2.55,10.45s.85,7.53,2.55,10.5c1.7,2.97,3.99,5.27,6.89,6.89,2.9,1.63,6.19,2.44,9.86,2.44,3.04,0,5.89-.65,8.54-1.96,2.65-1.31,4.89-3.34,6.74-6.1l7.74,4.88c-2.19,3.89-5.29,6.88-9.28,8.96-4,2.08-8.54,3.13-13.63,3.13Z"/>
      <path class="cls-1" d="m853.16,462.63c-5.66,0-10.68-1.24-15.06-3.71-4.39-2.47-7.85-5.89-10.39-10.24-2.55-4.35-3.82-9.28-3.82-14.8s1.27-10.54,3.82-14.85c2.54-4.31,6.01-7.69,10.39-10.13,4.38-2.44,9.4-3.66,15.06-3.66s10.59,1.22,15.01,3.66c4.42,2.44,7.89,5.8,10.4,10.08,2.51,4.28,3.77,9.25,3.77,14.91s-1.26,10.54-3.77,14.85c-2.51,4.31-5.98,7.71-10.4,10.18-4.42,2.48-9.42,3.71-15.01,3.71Zm0-8.91c3.61,0,6.84-.81,9.71-2.44,2.87-1.63,5.11-3.94,6.74-6.95,1.62-3.01,2.44-6.49,2.44-10.45s-.81-7.51-2.44-10.45c-1.63-2.93-3.87-5.21-6.74-6.84-2.86-1.63-6.1-2.44-9.71-2.44s-6.82.81-9.65,2.44c-2.83,1.63-5.09,3.91-6.79,6.84-1.7,2.94-2.55,6.42-2.55,10.45s.85,7.44,2.55,10.45c1.7,3.01,3.96,5.32,6.79,6.95,2.83,1.63,6.05,2.44,9.65,2.44Z"/>
      <path class="cls-1" d="m943.32,462.63c-6.01,0-11.3-1.24-15.86-3.71-4.56-2.47-8.1-5.87-10.61-10.18-2.51-4.31-3.77-9.26-3.77-14.85s1.22-10.54,3.66-14.85c2.44-4.31,5.8-7.69,10.08-10.13,4.28-2.44,9.1-3.66,14.48-3.66s10.25,1.2,14.43,3.61c4.17,2.41,7.44,5.78,9.81,10.13,2.37,4.35,3.55,9.42,3.55,15.22,0,.43-.02.92-.05,1.48-.04.57-.09,1.1-.16,1.59h-47.84v-7.32h42.53l-4.14,2.54c.07-3.6-.67-6.82-2.23-9.65-1.56-2.83-3.7-5.04-6.42-6.63-2.72-1.59-5.89-2.39-9.49-2.39s-6.68.79-9.44,2.39-4.92,3.82-6.47,6.68c-1.56,2.86-2.33,6.13-2.33,9.81v1.7c0,3.75.86,7.09,2.6,10.03,1.73,2.93,4.15,5.21,7.27,6.84,3.11,1.63,6.68,2.44,10.71,2.44,3.32,0,6.35-.56,9.07-1.69,2.72-1.13,5.11-2.83,7.16-5.09l5.62,6.58c-2.55,2.97-5.71,5.23-9.49,6.79-3.78,1.56-8.01,2.34-12.68,2.34Z"/>
      <path class="cls-1" d="m996.15,475.04v-21.95h66.19v21.95h-9.55v-13.05h-46.99v13.05h-9.65Zm47.41-17.82v-42.53h-24.4l-.53,10.82c-.14,3.54-.37,6.95-.69,10.24-.32,3.29-.81,6.31-1.48,9.07-.67,2.76-1.64,5.02-2.92,6.79-1.27,1.77-2.97,2.86-5.09,3.29l-10.08-1.8c2.19.07,3.96-.65,5.3-2.18,1.34-1.52,2.39-3.62,3.13-6.31.74-2.69,1.29-5.74,1.64-9.17.35-3.43.64-6.99.85-10.66l.85-18.99h43.6v51.44h-10.18Z"/>
      <path class="cls-1" d="m1096.81,462v-56.22h10.18v40.94l34.47-40.94h9.23v56.22h-10.18v-40.94l-34.37,40.94h-9.33Z"/>
      <path class="cls-1" d="m1191.63,462v-56.22h10.18v23.87h32.03v-23.87h10.18v56.22h-10.18v-23.55h-32.03v23.55h-10.18Z"/>
      <path class="cls-1" d="m1280.31,462l15.27-21.53h10.5l-14.85,21.53h-10.93Zm40.73,0v-19.73l1.59,1.91h-17.93c-7.5,0-13.35-1.59-17.56-4.77-4.21-3.18-6.31-7.81-6.31-13.9,0-6.5,2.24-11.42,6.74-14.74,4.49-3.32,10.48-4.99,17.98-4.99h24.61v56.22h-9.12Zm0-22.91v-27.26l1.59,2.86h-16.76c-4.67,0-8.28.87-10.82,2.6-2.55,1.73-3.82,4.58-3.82,8.54,0,7.35,4.74,11.03,14.21,11.03h17.18l-1.59,2.23Z"/>
      <path class="cls-1" d="m1366.44,462l15.27-21.53h10.5l-14.85,21.53h-10.93Zm40.73,0v-19.73l1.59,1.91h-17.93c-7.5,0-13.35-1.59-17.56-4.77-4.21-3.18-6.31-7.81-6.31-13.9,0-6.5,2.24-11.42,6.74-14.74,4.49-3.32,10.48-4.99,17.98-4.99h24.61v56.22h-9.12Zm0-22.91v-27.26l1.59,2.86h-16.76c-4.67,0-8.28.87-10.82,2.6-2.55,1.73-3.82,4.58-3.82,8.54,0,7.35,4.74,11.03,14.21,11.03h17.18l-1.59,2.23Z"/>
      <path class="cls-1" d="m1533.08,462.84c-4.67,0-8.79-.74-12.36-2.23-3.57-1.48-6.63-3.69-9.18-6.63-2.55-2.93-4.47-6.64-5.78-11.14-1.31-4.49-1.96-9.78-1.96-15.86,0-4.81.43-9.12,1.27-12.94.85-3.82,2.07-7.22,3.66-10.19,1.59-2.97,3.57-5.55,5.94-7.74,2.37-2.19,5.06-4.01,8.06-5.46,3.01-1.45,6.31-2.56,9.92-3.34l25.67-5.73,1.48,9.44-23.65,5.09c-1.42.28-3.11.71-5.09,1.28-1.98.57-4,1.43-6.05,2.6-2.05,1.17-3.96,2.77-5.73,4.83-1.77,2.05-3.18,4.72-4.24,8.01-1.06,3.29-1.59,7.34-1.59,12.15,0,1.35.03,2.37.1,3.08.07.71.16,1.42.27,2.12.11.71.19,1.77.27,3.18l-4.24-4.35c1.13-3.89,2.93-7.28,5.41-10.19,2.48-2.9,5.46-5.14,8.96-6.73,3.5-1.59,7.34-2.39,11.51-2.39,5.23,0,9.88,1.13,13.95,3.39,4.06,2.26,7.27,5.38,9.6,9.33,2.33,3.96,3.5,8.49,3.5,13.58s-1.22,9.78-3.66,13.84c-2.44,4.07-5.89,7.25-10.34,9.55-4.45,2.3-9.69,3.44-15.7,3.44Zm.95-8.48c3.61,0,6.79-.79,9.55-2.39,2.76-1.59,4.91-3.75,6.47-6.47,1.56-2.72,2.33-5.78,2.33-9.18s-.78-6.4-2.33-9.02-3.71-4.69-6.47-6.21c-2.76-1.52-6.01-2.28-9.76-2.28-3.54,0-6.72.73-9.55,2.18-2.83,1.45-5.02,3.47-6.58,6.05-1.56,2.58-2.33,5.57-2.33,8.96s.8,6.49,2.39,9.28c1.59,2.79,3.78,5,6.58,6.63,2.79,1.63,6.03,2.44,9.71,2.44Z"/>
      <path class="cls-1" d="m1598.52,462v-56.22h10.18v40.94l34.47-40.94h9.23v56.22h-10.18v-40.94l-34.37,40.94h-9.33Z"/>
      <path class="cls-1" d="m1696.37,461.1c-4.07-1.1-7.69-2.67-10.87-4.72l3.08-7.74c2.69,1.7,5.76,3.02,9.23,3.98,3.46.96,6.96,1.43,10.5,1.43,3.25,0,6.06-.39,8.43-1.17,2.37-.78,4.19-1.86,5.46-3.24,1.27-1.38,1.91-2.99,1.91-4.83,0-2.62-1.17-4.63-3.5-6.05-2.33-1.41-5.59-2.12-9.76-2.12h-10.18v-7.32h9.55c2.48,0,4.63-.28,6.47-.85,1.84-.56,3.27-1.43,4.3-2.6,1.02-1.17,1.54-2.53,1.54-4.08,0-1.7-.6-3.15-1.8-4.35-1.2-1.2-2.88-2.12-5.04-2.76-2.16-.63-4.69-.95-7.58-.95-2.83.07-5.71.46-8.64,1.17-2.94.71-5.92,1.8-8.96,3.29l-2.76-7.96c3.4-1.63,6.74-2.88,10.02-3.76,3.29-.89,6.56-1.36,9.81-1.43,4.88-.14,9.23.41,13.05,1.64,3.82,1.24,6.84,3.02,9.07,5.35,2.23,2.33,3.34,5.09,3.34,8.28,0,2.69-.85,5.07-2.54,7.16-1.7,2.09-3.96,3.73-6.79,4.93-2.83,1.2-6.08,1.8-9.76,1.8l.42-2.44c6.29,0,11.24,1.24,14.85,3.71,3.61,2.47,5.41,5.83,5.41,10.08,0,3.4-1.13,6.38-3.39,8.96-2.26,2.58-5.32,4.6-9.18,6.05-3.86,1.45-8.26,2.18-13.21,2.18-4.24,0-8.4-.55-12.46-1.64Z"/>
      <path class="cls-1" d="m1771.31,462v-56.22h10.18v23.87h32.03v-23.87h10.18v56.22h-10.18v-23.55h-32.03v23.55h-10.18Z"/>
      <path class="cls-1" d="m1889.79,462.63c-6.01,0-11.3-1.24-15.86-3.71-4.56-2.47-8.1-5.87-10.61-10.18-2.51-4.31-3.77-9.26-3.77-14.85s1.22-10.54,3.66-14.85c2.44-4.31,5.8-7.69,10.08-10.13,4.28-2.44,9.1-3.66,14.48-3.66s10.25,1.2,14.43,3.61c4.17,2.41,7.44,5.78,9.81,10.13,2.37,4.35,3.55,9.42,3.55,15.22,0,.43-.02.92-.05,1.48-.04.57-.09,1.1-.16,1.59h-47.84v-7.32h42.53l-4.14,2.54c.07-3.6-.67-6.82-2.23-9.65-1.56-2.83-3.7-5.04-6.42-6.63-2.72-1.59-5.89-2.39-9.49-2.39s-6.68.79-9.44,2.39-4.92,3.82-6.47,6.68c-1.56,2.86-2.33,6.13-2.33,9.81v1.7c0,3.75.86,7.09,2.6,10.03,1.73,2.93,4.15,5.21,7.27,6.84,3.11,1.63,6.68,2.44,10.71,2.44,3.32,0,6.35-.56,9.07-1.69,2.72-1.13,5.11-2.83,7.16-5.09l5.62,6.58c-2.55,2.97-5.71,5.23-9.49,6.79-3.78,1.56-8.01,2.34-12.68,2.34Z"/>
      <path class="cls-1" d="m1977.09,462.63c-5.73,0-10.84-1.24-15.33-3.71-4.49-2.47-8.01-5.87-10.55-10.18-2.55-4.31-3.82-9.26-3.82-14.85s1.27-10.54,3.82-14.85c2.54-4.31,6.06-7.69,10.55-10.13,4.49-2.44,9.6-3.66,15.33-3.66,5.09,0,9.63,1.01,13.63,3.02,3.99,2.02,7.09,5,9.28,8.97l-7.74,4.98c-1.84-2.76-4.08-4.79-6.74-6.1-2.65-1.31-5.5-1.96-8.54-1.96-3.68,0-6.97.81-9.86,2.44-2.9,1.63-5.2,3.91-6.89,6.84-1.7,2.94-2.55,6.42-2.55,10.45s.85,7.53,2.55,10.5c1.7,2.97,3.99,5.27,6.89,6.89,2.9,1.63,6.19,2.44,9.86,2.44,3.04,0,5.89-.65,8.54-1.96,2.65-1.31,4.89-3.34,6.74-6.1l7.74,4.88c-2.19,3.89-5.29,6.88-9.28,8.96-4,2.08-8.54,3.13-13.63,3.13Z"/>
    </g>
    <g>
      <path class="cls-1" d="m928.81,106.9c-17.74-10.05-38.15-15.08-61.21-15.08-19.52,0-37.34,4.44-53.45,13.31-11.09,6.1-20.6,14.36-28.61,24.66V0h-42.58v329.13h40.81v-37.17c8.08,11.02,17.89,19.81,29.5,26.3,16.11,9.02,34.22,13.53,54.34,13.53,23.07,0,43.47-5.03,61.21-15.08,17.74-10.05,31.78-24.1,42.14-42.14,10.35-18.03,15.53-39.03,15.53-62.99s-5.18-44.87-15.53-62.76c-10.35-17.89-24.39-31.86-42.14-41.92Zm4.21,148.37c-6.95,12.57-16.41,22.26-28.39,29.05-11.98,6.8-25.5,10.2-40.59,10.2s-28.17-3.4-40.14-10.2c-11.98-6.8-21.44-16.48-28.39-29.05-6.95-12.57-10.43-27.13-10.43-43.69s3.47-31.42,10.43-43.69c6.94-12.27,16.41-21.8,28.39-28.61,11.98-6.8,25.35-10.2,40.14-10.2s28.61,3.4,40.59,10.2c11.98,6.81,21.44,16.34,28.39,28.61,6.94,12.27,10.42,26.83,10.42,43.69s-3.48,31.12-10.42,43.69Z"/>
      <rect class="cls-1" x="1049.88" y="94.02" width="42.61" height="235.1"/>
      <path class="cls-1" d="m1071.18,0c-8.28,0-15.16,2.68-20.62,8.01-5.46,5.33-8.21,11.98-8.21,19.95s2.75,14.21,8.21,19.51c5.46,5.33,12.35,8.01,20.62,8.01s15.54-2.75,20.86-8.21c5.33-5.46,7.97-12.21,7.97-20.18s-2.75-14.11-8.21-19.3c-5.46-5.16-12.35-7.77-20.63-7.77Z"/>
      <polygon class="cls-1" points="1348.86 121.98 1348.86 94.04 1158.12 94.04 1158.12 129.08 1294.48 129.08 1155.46 301.63 1155.46 329.13 1352.4 329.13 1352.4 294.09 1209.86 294.09 1348.86 121.98"/>
      <polygon class="cls-1" points="1584.39 121.98 1584.39 94.04 1393.65 94.04 1393.65 129.08 1530.01 129.08 1390.99 301.63 1390.99 329.13 1587.93 329.13 1587.93 294.09 1445.39 294.09 1584.39 121.98"/>
      <rect class="cls-1" x="1649.15" y="94.02" width="42.58" height="235.1"/>
      <path class="cls-1" d="m1670.42,0c-8.28,0-15.13,2.68-20.63,8.01-5.46,5.33-8.21,11.98-8.21,19.95s2.75,14.21,8.21,19.51c5.5,5.33,12.35,8.01,20.63,8.01s15.54-2.75,20.86-8.21c5.33-5.46,7.97-12.21,7.97-20.18s-2.71-14.11-8.21-19.3c-5.46-5.16-12.35-7.77-20.63-7.77Z"/>
      <path class="cls-1" d="m1984.25,149.26c-10.5-17.89-24.99-31.94-43.47-42.14-18.48-10.2-39.41-15.3-62.76-15.3s-44.65,5.1-62.99,15.3c-18.34,10.2-32.82,24.33-43.47,42.36-10.65,18.04-15.97,38.74-15.97,62.1s5.32,43.69,15.97,61.88c10.65,18.18,25.13,32.46,43.47,42.8,18.33,10.35,39.32,15.52,62.99,15.52s44.28-5.17,62.76-15.52c18.48-10.35,32.97-24.54,43.47-42.58,10.49-18.04,15.75-38.74,15.75-62.1s-5.25-44.43-15.75-62.32Zm-37.48,106.01c-6.81,12.57-16.19,22.26-28.17,29.05-11.98,6.8-25.51,10.2-40.59,10.2s-28.54-3.4-40.36-10.2c-11.83-6.8-21.29-16.48-28.39-29.05-7.1-12.57-10.65-27.13-10.65-43.69s3.55-31.42,10.65-43.69c7.1-12.27,16.56-21.8,28.39-28.61,11.82-6.8,25.28-10.2,40.36-10.2s28.61,3.4,40.59,10.2c11.98,6.81,21.36,16.34,28.17,28.61,6.8,12.27,10.2,26.83,10.2,43.69s-3.4,31.12-10.2,43.69Z"/>
    </g>
  </g>
</svg>